<?xml version="1.0" encoding="utf-8"?>
<!-- Generator: Adobe Illustrator 25.2.3, SVG Export Plug-In . SVG Version: 6.00 Build 0)  -->
<svg version="1.1" xmlns="http://www.w3.org/2000/svg" xmlns:xlink="http://www.w3.org/1999/xlink" x="0px" y="0px"
	 viewBox="0 0 1165.54 902.75" style="enable-background:new 0 0 1165.54 902.75;" xml:space="preserve">
<style type="text/css">
	.st0{fill:url(#SVGID_1_);}
	.st1{fill:#61BC40;}
	.st2{fill:none;stroke:#61BC40;stroke-width:20;stroke-miterlimit:10;}
	.st3{fill:#2B7024;}
	.st4{fill:url(#SVGID_2_);}
	.st5{fill:url(#SVGID_3_);}
	.st6{fill:url(#SVGID_4_);}
	.st7{fill:url(#SVGID_5_);}
	.st8{fill:url(#SVGID_6_);}
</style>
<g id="leaves-back">
	<g>
		
			<radialGradient id="SVGID_1_" cx="707.4151" cy="409.4411" r="650.0569" fx="689.4801" fy="409.6192" gradientTransform="matrix(-0.9598 0.2807 0.1439 0.4921 1103.1926 187.8668)" gradientUnits="userSpaceOnUse">
			<stop  offset="0" style="stop-color:#2B7024"/>
			<stop  offset="0.3854" style="stop-color:#2B6D26"/>
			<stop  offset="0.7129" style="stop-color:#2B622D"/>
			<stop  offset="1" style="stop-color:#2B5238"/>
		</radialGradient>
		<path class="st0" d="M582.77,902.75c1.67-2.36,3.19-4.68,4.57-6.95c1.41-2.28,2.71-4.53,3.96-6.77c2.49-4.47,4.7-8.86,6.76-13.21
			c4.05-8.67,7.39-17.14,10.16-25.43c2.32-6.95-25.27-12.03-23.68-18.77c2.21-9.35,33.28-20.26,34.27-29.26
			c1.57-14.39-33.32-19.91-34.39-33.53c-1.23-15.66,30.95-39.3,26.69-54.07c-4.13-14.21-50.83-9.21-57.8-22.59
			c-6.57-12.6,26.76-43.64,17.31-55.41c-4.89-6.06-36.18,0.69-41.96-5.1s13.94-24.14,7.12-29.63c-3.71-2.99-21.97,1.96-26.05-0.92
			c-3.42-2.41,7.41-12.68,3.71-15.01c-4.09-2.55-8.33-5.05-12.86-7.47c-2.28-1.21-4.59-2.4-7.02-3.56c-2.4-1.17-4.95-2.3-7.64-3.38
			c-1.68,2.36-3.22,4.68-4.61,6.96c-1.42,2.29-2.73,4.54-3.99,6.78c-2.51,4.48-4.73,8.87-6.81,13.22
			c-4.08,8.68-7.45,17.15-10.24,25.46c-2.76,8.21,22.05,17.98,20.32,25.89c-1.78,8.09-30.08,14.32-30.95,22.14
			c-1.51,13.97,33.28,19.06,34.27,32.3c1.21,16.07-30.8,40.11-26.35,55.23c3.78,12.74,42.23,10.49,48.24,22.57
			c7,14.06-18.02,42.33-7.52,55.36c4.89,6.06,29.86-3.67,35.63,2.13s-7.64,27.12-0.83,32.62c3.87,3.12,11.87-1.12,16.13,1.89
			c3.24,2.29,2.64,11.85,6.13,14.06c4.08,2.55,8.31,5.06,12.81,7.48c2.27,1.21,4.57,2.41,6.99,3.57
			C577.56,900.53,580.09,901.66,582.77,902.75z"/>
		<g>
			<path class="st1" d="M582.77,902.75c-8.55-21.85-16.14-43.99-23.45-66.21c-7.27-22.23-14.16-44.57-20.72-67
				c-6.57-22.43-12.8-44.96-18.66-67.6c-5.82-22.65-11.35-45.39-15.91-68.41c8.56,21.85,16.16,43.98,23.46,66.2
				c7.27,22.23,14.16,44.57,20.71,67.01c6.56,22.44,12.79,44.97,18.65,67.61C572.66,857,578.19,879.73,582.77,902.75z"/>
		</g>
	</g>
</g>
<g id="Stil">
	<path class="st2" d="M582.77,902.75c0-55.43,15.84-124.51,32.01-191.08C679,447.3,704.02,146.24,476.34,146.24"/>
	<path class="st3" d="M465.83,134.55c0,0,36.59,20.61,38.18,65.03s-27.53,45.3-27.53,45.3s24.98,14.65,46.11-13.55
		c12.75-17.02,15.77-20.57,22.45-23.39c12.84-5.42,9.88,37.4,9.88,37.4s39.91-21.96,41.45-50.87c0.69-12.93-3.77-17.13,2.24-21.87
		c3.01-2.38,14.61-1.19,23.18-2.61c17.34-2.87,21.57-25.29,21.57-25.29s-9.06,12.85-35.67-2.95
		c-26.61-15.81-45.94-44.73-45.94-44.73L465.83,134.55z"/>
</g>
<g id="leaves-front">
	<g>
		
			<radialGradient id="SVGID_2_" cx="939.5884" cy="253.2448" r="650.0569" fx="921.6534" fy="253.423" gradientTransform="matrix(0.4996 0.8663 -0.8663 0.4996 894.0745 -353.3441)" gradientUnits="userSpaceOnUse">
			<stop  offset="0" style="stop-color:#2B7024"/>
			<stop  offset="0.3854" style="stop-color:#2B6D26"/>
			<stop  offset="0.7129" style="stop-color:#2B622D"/>
			<stop  offset="1" style="stop-color:#2B5238"/>
		</radialGradient>
		<path class="st4" d="M582.77,902.49c1.9-3.71,3.89-7.29,5.94-10.75c2.04-3.48,4.14-6.85,6.26-10.19
			c4.25-6.66,8.65-13.06,13.12-19.34c8.98-12.48,18.33-24.32,27.98-35.64c8.08-9.48,41.92-0.08,50.38-8.9
			c11.75-12.25-1.73-42.44,10.65-53.6c19.82-17.83,61.27-4.87,82.47-20.32c24.37-17.76,28.69-63.57,54.63-78.6
			c25-14.44,62.13,17.5,88.6,5.62c24.94-11.19,39.13-66.36,65.57-74.95c13.64-4.41,33.48,21,47.58,17.4
			c14.1-3.6,22.46-36.22,37.1-38.89c7.97-1.45,18.05,14.57,26.21,13.45c6.83-0.94,11.71-19.07,18.69-19.75
			c7.68-0.72,15.43-1.3,23.33-1.63c3.96-0.15,7.93-0.27,11.97-0.28c4.02-0.04,8.12,0.05,12.29,0.28c-1.9,3.72-3.87,7.31-5.92,10.78
			c-2.03,3.49-4.13,6.87-6.24,10.22c-4.24,6.68-8.63,13.1-13.09,19.38c-8.97,12.51-18.3,24.37-27.95,35.71
			c-9.53,11.21-47.67,8.88-57.73,19.17c-10.29,10.53,7.49,33.65-3.28,43.36c-19.26,17.3-59.98,3.9-80.54,18.94
			c-24.95,18.25-30.04,64.45-56.68,79.78c-22.47,12.9-55.81-11.2-79.45-0.31c-27.5,12.66-45.52,59.93-74.84,69.44
			c-13.64,4.41-23.04-20.98-37.14-17.37c-14.1,3.61-32.89,36.22-47.53,38.9c-8.32,1.52-9.67-7.94-18.19-6.77
			c-6.47,0.89-20.07,12.49-26.68,13.14c-7.67,0.73-15.41,1.33-23.31,1.67c-3.95,0.16-7.92,0.29-11.96,0.31
			C591.03,902.78,586.94,902.71,582.77,902.49z"/>
		<g>
			<path class="st1" d="M582.77,902.49c38.46-24.57,77.41-48.28,116.54-71.7c39.13-23.41,78.43-46.52,117.93-69.29
				c39.48-22.8,79.17-45.23,119.03-67.38c39.86-22.14,79.9-43.98,120.43-64.95c-38.45,24.58-77.4,48.3-116.53,71.71
				c-39.13,23.4-78.43,46.53-117.93,69.28c-39.49,22.78-79.18,45.22-119.04,67.37C663.33,859.67,623.3,881.51,582.77,902.49z"/>
		</g>
	</g>
	<g>
		
			<radialGradient id="SVGID_3_" cx="716.4071" cy="553.0316" r="650.0569" fx="698.4721" fy="553.2097" gradientTransform="matrix(0.5804 -0.8143 0.7075 0.5042 -675.5931 876.4885)" gradientUnits="userSpaceOnUse">
			<stop  offset="0" style="stop-color:#2B7024"/>
			<stop  offset="0.3854" style="stop-color:#2B6D26"/>
			<stop  offset="0.7129" style="stop-color:#2B622D"/>
			<stop  offset="1" style="stop-color:#2B5238"/>
		</radialGradient>
		<path class="st5" d="M582.77,902.46c-3.79,0.08-7.5,0.03-11.12-0.14c-3.64-0.14-7.2-0.38-10.75-0.65
			c-7.07-0.56-13.98-1.37-20.79-2.3c-13.58-1.92-26.74-4.44-39.55-7.44c-10.73-2.51-13.61-35.33-23.89-38.47
			c-14.28-4.35-35.78,20.7-49.33,15.32c-21.67-8.63-23.96-49.48-44.03-60.35c-23.08-12.5-63.7,4.63-84.94-10.44
			c-20.44-14.54-5.08-60.35-23.8-77.3c-17.63-15.96-69.45-2.92-85.34-21.32c-8.18-9.5,7.17-37.77-0.47-48.03
			c-7.64-10.26-38.27-2.52-45.28-13.66c-3.82-6.06,6.64-21.83,3.05-28.21c-3.01-5.34-20.11-1.23-22.95-6.81
			c-3.09-6.15-6.1-12.43-8.93-18.94c-1.41-3.27-2.79-6.57-4.11-9.97c-1.33-3.38-2.58-6.87-3.73-10.5c3.8-0.09,7.51-0.05,11.14,0.1
			c3.65,0.13,7.22,0.36,10.77,0.63c7.09,0.55,14,1.34,20.82,2.26c13.6,1.89,26.78,4.39,39.6,7.38c12.67,2.96,23,36.19,35.06,40.01
			c12.34,3.91,26.4-21.58,38.19-16.9c21.03,8.4,22.71,48.83,42.22,59.35c23.69,12.77,64.88-3.89,86.61,11.63
			c18.3,13.11,8.43,52.16,25.39,67.17c19.72,17.46,66.01,11.22,83.62,31.65c8.18,9.51-10.53,28.95-2.88,39.21
			c7.64,10.26,41.63,11.32,48.65,22.45c3.99,6.32-3.68,11.76,0.07,18.42c2.85,5.06,17.17,11.27,19.87,16.54
			c3.1,6.14,6.11,12.4,8.96,18.9c1.41,3.26,2.81,6.55,4.13,9.95C580.35,895.36,581.61,898.85,582.77,902.46z"/>
		<g>
			<path class="st1" d="M582.77,902.46c-33.46-21.3-66.34-43.41-99.02-65.8c-32.68-22.39-65.16-45.06-97.41-68.06
				c-32.27-22.97-64.29-46.28-96.13-69.86c-31.83-23.58-63.45-47.46-94.5-72.14c33.46,21.29,66.35,43.4,99.03,65.79
				c32.68,22.4,65.16,45.06,97.4,68.07c32.26,22.98,64.29,46.29,96.12,69.87C520.09,853.92,551.72,877.79,582.77,902.46z"/>
		</g>
	</g>
</g>
<g id="bloom-1">
	<radialGradient id="SVGID_4_" cx="324.1571" cy="197.6926" r="403.6831" gradientUnits="userSpaceOnUse">
		<stop  offset="0" style="stop-color:#F4D13D"/>
		<stop  offset="1" style="stop-color:#F4B326"/>
	</radialGradient>
	<path class="st6" d="M305.8,227.92c-6.71,8.28-17.01,11.67-17.01,11.67l27.2,15.68l23.82-24.45l-1.38,24.98l28.41-2.57l-2.17-32.12
		l17.8,26.3l19.54-7.28l-0.81-30.85l20.71,34.11l26.57-9.9l-2.05-43.73l7.86,21.1l20.7-4.15l-3.26-25.48l23.66,27.68l16.32-8.75
		l-10.48-28.14l28.64,26.71l21.39-7.08l-3.41-45.01l12.63,22.67l25.13-14.48l-6.4-17.19l21.83,11.45l23.65-8.81l-4.24-23.34
		l34.41,18.33l21.59-8.93l-13.22-23.55l26.18,21.4l23.57-9.67l-6.55-17.58l13.86,0.18l13.49-29.5l-24.44-2.85l2.79-15.49
		l-23.72-1.55l-29.63,5.55c-30.72-23.71-135.46-7.17-190.93,14.58c-94.83,37.19-141.01,73.56-153.2,116.82
		c-0.63,2.24-14.84,3.18-14.84,3.18l-12.79,19.74c0,0,24.24,5.37,24.5,9.24"/>
</g>
<g id="bloom-2">
	<radialGradient id="SVGID_5_" cx="344.2918" cy="140.5251" r="352.7687" gradientUnits="userSpaceOnUse">
		<stop  offset="0" style="stop-color:#FFEB36"/>
		<stop  offset="1" style="stop-color:#F4D13D"/>
	</radialGradient>
	<path class="st7" d="M384.04,152.62v20.02h26.69l8.34-34.19c0,0,6.25,26.69,8.34,27.52c2.08,0.83,27.52-10.42,27.52-10.42v-34.61
		l15.85,32.53l18.35-6.67l-4.17-40.86l25.02,33.36l18.35-4.17l-4.17-29.19L545,120.93l27.52-8.34l-3.66-35.86l32.01,22.52
		l44.59-22.52l-27.08-23.35l61.44,7.52V41.71l-44.76-9.19l27.52-15.01L634.23,0l-34.19,27.52l0.83-18.35l-41.7,0.83l-5.23,17.57
		l-19.79-9.23l-27.52,10.84l-10.01,18.35l-34.19-5.84L417.4,61.71l-0.83,15.01l-20.85-4.17l-19.18,13.76V99.4l-15.85-7.66
		l-25.85,27.52l18.35,9.51l-25.02,4.67l-6.67,18.35l23.35,0.83l-16.68,30.02l37.53,4.17L384.04,152.62z"/>
</g>
<g id="bloom-3">
	<radialGradient id="SVGID_6_" cx="377.3836" cy="122.969" r="235.5438" gradientUnits="userSpaceOnUse">
		<stop  offset="0" style="stop-color:#FFF91A"/>
		<stop  offset="1" style="stop-color:#FFEB36"/>
	</radialGradient>
	<polygon class="st8" points="435.48,93.38 441.02,116 468.29,109.49 458.84,83.36 476.63,105.04 498.72,98.37 498.72,73.9 
		515.55,93.38 536.67,81.69 523.89,52.78 556.92,75.02 577.26,63.9 566.7,47.77 591.72,47.77 585.6,27.76 561.14,31.09 
		561.14,16.08 525.55,26.09 521.11,36.1 504.7,29.16 463.84,48.33 463.28,60.56 450.5,52.22 431.04,60 433.26,75.57 420.47,67.23 
		400.46,80.02 404.9,93.38 383.78,88.91 379.89,103.93 387.67,107.82 359.87,121.72 370.99,140.62 389.4,123.39 394.1,135.82 
		431.59,127.83 	"/>
</g>
</svg>
