<?xml version="1.0" encoding="utf-8"?>
<!-- Generator: Adobe Illustrator 25.2.3, SVG Export Plug-In . SVG Version: 6.00 Build 0)  -->
<svg version="1.1" xmlns="http://www.w3.org/2000/svg" xmlns:xlink="http://www.w3.org/1999/xlink" x="0px" y="0px"
	 viewBox="0 0 1920 1080" style="enable-background:new 0 0 1920 1080;" xml:space="preserve">
<style type="text/css">
	.st0{fill:#5E3C2A;}
	.st1{display:none;}
	.st2{display:inline;}
	.st3{fill:#FFFFFF;}
</style>
<g id="Ebene_1">
	<polygon class="st0" points="970,0 967.77,120.2 1131.85,286.36 1179.79,293.38 1184.7,294.1 1184.67,299 1183.76,443.06 
		1335.88,597.12 1336.88,598.13 1336.87,599.5 1335.79,770.07 1498.33,934.67 1498.57,934.92 1498.57,935.25 1498.32,974.43 
		1536,974.67 1536.33,974.67 1536.33,975 1536,1027 1535.67,975.33 1497.75,975.57 1497.18,975.57 1497.18,975 1496.93,935.6 
		1417.72,857.38 1398.03,875.96 1383.69,895.04 1381.79,960 1381.68,964.04 1377.86,963.93 1343.11,962.91 1340.36,1057 
		1337.53,960 1337.45,957.25 1340.36,957.17 1373.83,956.19 1371.98,893 1371.93,891.31 1373.06,889.61 1387.62,867.67 
		1387.83,867.36 1388.35,866.8 1407.12,846.91 1331.88,772.62 1331.22,771.96 1331.21,771 1330.14,600.92 1291.76,563.02 
		1266.84,589.76 1261.5,700.5 1256.05,587.5 1255.97,585.78 1257.34,583.99 1281.32,552.71 1175.64,448.36 1174.26,447 1174.25,445 
		1173.36,303.97 1128.17,297.93 1126.22,297.67 1124.76,296.24 967.39,140.84 965.14,262.54 1046,263.18 1052.87,263.24 
		1052.82,270 1051.81,397.28 1100,397.66 1105.38,397.7 1105.34,403 1104.29,535.71 1105.3,534.7 1211.47,647.53 1212.32,648.43 
		1212.29,649.5 1209.5,741 1206.75,650.74 1104.14,554.19 1102.8,723.55 1156,724.5 1162.61,724.62 1162.5,731 1160.8,825.61 
		1202,826.56 1208.58,826.72 1208.44,833 1207.62,868.05 1270.35,936.65 1271.37,937.78 1271.32,939 1268,1013 1264.75,940.52 
		1207.16,887.87 1206.17,931 1206.07,935.26 1202,935.17 1159.03,934.17 1156,1065 1152.9,931 1152.83,927.97 1156,927.9 
		1197.74,926.93 1195.72,839.58 1160.53,840.4 1159.98,871 1159.91,875.05 1156,874.98 1102.92,874.03 1100,1037 1097.02,871 
		1096.97,868.08 1100,868.02 1151.95,867.09 1149.62,737.61 1102.68,738.45 1102.33,783 1102.31,785.35 1100,785.33 1051.92,784.95 
		1050.7,939 1050.69,939.7 1050,939.7 1026.5,939.51 1026,1003 1025.49,939 1025.49,938.5 1026,938.49 1049.3,938.31 1048.07,783 
		1048.05,781.08 1050,781.07 1097.65,780.69 1095.8,546.34 1094.7,545.3 1095.78,544.22 1094.7,408.38 1046,408.77 1040.28,408.81 
		1040.23,403 1039.24,276.87 964.86,277.46 962.16,423.55 1010,424.76 1016.39,424.92 1016.24,431 1010,679 1003.92,437.39 
		961.88,438.45 960,540 958.86,478.49 904.77,477.91 903.14,631.46 938,631.83 942.72,631.88 942.67,636.5 940.35,854.69 
		978,855.09 979.93,855.11 979.91,857 978,1037 976.11,858.93 938,859.33 935.69,859.35 935.67,857 934.75,770.43 878.05,769.3 
		875.1,916.02 905,916.62 907.29,916.67 907.37,918.86 912,1037 902.81,921.42 872,922.04 869.02,922.1 868.96,919 867.58,850.36 
		838.01,849.41 832,1037 825.78,843 825.59,836.99 832,836.78 867.29,835.65 865.83,763 865.7,756.95 872,756.83 934.6,755.57 
		933.38,641.22 898,641.59 892.96,641.64 892.91,636.5 891.16,471 891.09,464.23 898,464.16 958.58,463.52 951.26,68.18 
		876.8,141.77 878.26,222.85 878.3,225.57 876.42,227.42 839.47,263.95 832,471 825.05,278.2 762,340.51 783.87,363.13 
		785.93,365.27 785.88,368 782.46,571.65 816,572.21 818.83,572.26 818.79,575 816,741 813.26,577.83 779,578.41 775.65,578.46 
		775.59,575 774.21,492.41 759.88,492.14 753,861 745.99,485 745.86,478.12 753,477.99 773.96,477.59 772.17,370.97 751.45,350.93 
		707.84,394.04 707.23,497 707.22,498.78 705.99,499.99 620.19,584.8 635.26,606.35 636.63,608.31 636.6,610.5 634.84,735.8 
		678,736.41 682.66,736.47 682.59,741 679.83,938.58 718.27,947.8 719.25,948.03 719.23,949 718,1037 716.78,950 677.6,941.76 
		676.21,941.47 676.19,940 674.39,811.14 652.3,810.45 651.13,848.13 651.3,848.3 651.11,848.48 646,1013 641.17,857.62 
		582.96,911.11 579.5,993 575.97,909.5 575.92,908.19 577.01,907.01 640.55,837.85 639.49,803.75 639.3,797.45 646,797.24 
		674.18,796.37 673.47,745.66 629.5,746.27 624.3,746.34 624.23,741 622.43,612.89 609.46,595.4 451.62,751.39 451.2,823.32 
		488,823.54 489.45,823.55 489.46,824.98 490.58,972.41 526,972.62 526.4,972.63 526.38,973.02 522,1037 525.6,973.38 490,973.59 
		489.42,973.59 489.41,973.01 486.57,826.47 449.5,826.69 447.82,826.7 447.81,825 447.38,750.5 447.37,749.63 448,749 
		698.76,495.27 698.15,392 698.14,390.02 699.57,388.57 865.67,220.51 863.25,139.16 863.17,136.31 865.23,134.23 950.88,47.56 
		950,0 0,0 0,1080 1920,1080 1920,0 	"/>
</g>
</svg>
